<svg xmlns="http://www.w3.org/2000/svg" xmlns:xlink="http://www.w3.org/1999/xlink" width="588" height="276" viewBox="0 0 440.5 207"><g id="graph0" class="graph" transform="scale(1 1) rotate(0) translate(4 203)"><title>G</title><polygon fill="#fff" stroke="transparent" points="-4 4 -4 -203 436.5 -203 436.5 4 -4 4"/><g id="node1" class="node"><title>main_repo</title><path fill="none" stroke="#000" d="M134,-157C134,-157 12,-157 12,-157 6,-157 0,-151 0,-145 0,-145 0,-133 0,-133 0,-127 6,-121 12,-121 12,-121 134,-121 134,-121 140,-121 146,-127 146,-133 146,-133 146,-145 146,-145 146,-151 140,-157 134,-157"/><text x="27.5" y="-140.9" font-family="Georgia" font-size="12" text-anchor="start">Main Repository</text><text x="8" y="-131.3" font-family="Georgia" font-size="9" text-anchor="start">gitlab.com/wireshark/wireshark</text></g><g id="node2" class="node"><title>your_fork</title><path fill="none" stroke="#000" d="M420.5,-157C420.5,-157 323.5,-157 323.5,-157 317.5,-157 311.5,-151 311.5,-145 311.5,-145 311.5,-133 311.5,-133 311.5,-127 317.5,-121 323.5,-121 323.5,-121 420.5,-121 420.5,-121 426.5,-121 432.5,-127 432.5,-133 432.5,-133 432.5,-145 432.5,-145 432.5,-151 426.5,-157 420.5,-157"/><text x="344" y="-140.9" font-family="Georgia" font-size="12" text-anchor="start">Your Fork</text><text x="319.5" y="-131.3" font-family="Georgia" font-size="9" text-anchor="start">gitlab.com/you/wireshark</text></g><g id="edge1" class="edge"><title>main_repo-&gt;your_fork:nw</title><path fill="none" stroke="#000" stroke-dasharray="5 2" d="M111.33,-157.11C161.44,-178.63 250.32,-206.57 303.87,-163.83"/><polygon fill="#000" stroke="#000" points="306.38 -166.28 311.5 -157 301.71 -161.06 306.38 -166.28"/><text x="229" y="-189.4" font-family="Georgia" font-size="12" text-anchor="middle">1. Fork (once)</text></g><g id="node3" class="node"><title>your_repo</title><path fill="none" stroke="#000" d="M278.5,-36C278.5,-36 165.5,-36 165.5,-36 159.5,-36 153.5,-30 153.5,-24 153.5,-24 153.5,-12 153.5,-12 153.5,-6 159.5,0 165.5,0 165.5,0 278.5,0 278.5,0 284.5,0 290.5,-6 290.5,-12 290.5,-12 290.5,-24 290.5,-24 290.5,-30 284.5,-36 278.5,-36"/><text x="161.5" y="-19.9" font-family="Georgia" font-size="12" text-anchor="start">Your Local Repository</text><text x="163.5" y="-10.3" font-family="Georgia" font-size="9" text-anchor="start">Somewhere on your machine</text></g><g id="edge2" class="edge"><title>main_repo-&gt;your_repo</title><path fill="none" stroke="#000" d="M94.35,-120.95C120.13,-100.36 163.63,-65.62 192.58,-42.5"/><polygon fill="#000" stroke="#000" points="195.06 -44.99 200.69 -36.02 190.69 -39.52 195.06 -44.99"/><text x="169.5" y="-75.4" font-family="Georgia" font-size="12" text-anchor="middle">2. Pull</text></g><g id="edge4" class="edge"><title>your_fork-&gt;main_repo</title><path fill="none" stroke="#000" d="M311.41,-139C266.97,-139 205.73,-139 156.57,-139"/><polygon fill="#000" stroke="#000" points="156.27 -135.5 146.27 -139 156.27 -142.5 156.27 -135.5"/><text x="229" y="-142.4" font-family="Georgia" font-size="12" text-anchor="middle">4. Merge Request</text></g><g id="edge3" class="edge"><title>your_repo-&gt;your_fork</title><path fill="none" stroke="#000" d="M243.45,-36.02C269.39,-56.59 313.17,-91.33 342.33,-114.46"/><polygon fill="#000" stroke="#000" points="340.5 -117.48 350.51 -120.95 344.85 -111.99 340.5 -117.48"/><text x="321" y="-75.4" font-family="Georgia" font-size="12" text-anchor="middle">3. Push</text></g></g></svg>