<svg xmlns="http://www.w3.org/2000/svg" xmlns:svg="http://www.w3.org/2000/svg" xmlns:xlink="http://www.w3.org/1999/xlink" id="Layer_1" width="16" height="16" x="0" y="0" enable-background="new 0 0 16 16" version="1.1" viewBox="0 0 16 16" xml:space="preserve"><metadata id="metadata3023"/><defs id="defs3021"><linearGradient id="linearGradient4512" x1="11.5" x2="9" y1="14" y2="8" gradientUnits="userSpaceOnUse" xlink:href="#linearGradient4506"/><linearGradient id="linearGradient4506"><stop style="stop-color:#000;stop-opacity:.15753424" id="stop4508" offset="0"/><stop style="stop-color:#000;stop-opacity:0" id="stop4510" offset="1"/></linearGradient><linearGradient id="linearGradient4520" x1="10" x2="12" y1="1.5" y2="8" gradientUnits="userSpaceOnUse" xlink:href="#linearGradient4514"/><linearGradient id="linearGradient4514"><stop style="stop-color:#fff;stop-opacity:.15753424" id="stop4516" offset="0"/><stop style="stop-color:#fff;stop-opacity:0" id="stop4518" offset="1"/></linearGradient><linearGradient id="linearGradient2946" x1="11" x2="13" y1="3" y2="8" gradientUnits="userSpaceOnUse" xlink:href="#linearGradient4514"/><linearGradient id="linearGradient3009" x1="12" x2="10" y1="13" y2="8" gradientUnits="userSpaceOnUse" xlink:href="#linearGradient4506"/></defs><g id="g3011"><g id="g3013"><rect id="rect3015" width="14" height="14" x="1" y="1" fill="#FFF"/><path id="path3017" fill="#999" d="M14.271,1.729v12.542H1.729V1.729H14.271 M15,1H1v14h14V1L15,1z"/></g><rect id="rect3019" width="10.5" height="10.5" x="2.75" y="2.75" fill="#dc0000" style="display:inline"/><rect id="rect2151" width="10.5" height="10.5" x="2.75" y="2.75" fill="#dc0000" style="display:inline;fill:url(#linearGradient3009);fill-opacity:1"/><rect id="rect2153" width="10.5" height="10.5" x="2.75" y="2.75" fill="#dc0000" style="display:inline;fill:url(#linearGradient2946);fill-opacity:1"/></g><path id="path4502" d="m -15.249,12.941 c 0,0 1.543,-11.499 11.188,-12.837 -2.991,6.231 -0.145,12.852 -0.145,12.852 z" style="display:inline;fill:url(#linearGradient4512);fill-opacity:1"/><path style="display:inline;fill:url(#linearGradient4520);fill-opacity:1" id="path4504" d="m -15.249,12.941 c 0,0 1.543,-11.499 11.188,-12.837 -2.991,6.231 -0.145,12.852 -0.145,12.852 z"/></svg>