<svg xmlns="http://www.w3.org/2000/svg" xmlns:svg="http://www.w3.org/2000/svg" xmlns:xlink="http://www.w3.org/1999/xlink" id="Layer_1" width="16" height="16" x="0" y="0" enable-background="new 0 0 16 16" version="1.1" viewBox="0 0 16 16" xml:space="preserve"><defs id="defs5318"><linearGradient id="linearGradient3009" x1="12" x2="10" y1="13" y2="8" gradientUnits="userSpaceOnUse" xlink:href="#linearGradient4506"/><linearGradient id="linearGradient4506"><stop style="stop-color:#000;stop-opacity:.15753424" id="stop4508" offset="0"/><stop style="stop-color:#000;stop-opacity:0" id="stop4510" offset="1"/></linearGradient><linearGradient id="linearGradient2946" x1="11" x2="13" y1="3" y2="8" gradientUnits="userSpaceOnUse" xlink:href="#linearGradient4514"/><linearGradient id="linearGradient4514"><stop style="stop-color:#fff;stop-opacity:.15753424" id="stop4516" offset="0"/><stop style="stop-color:#fff;stop-opacity:0" id="stop4518" offset="1"/></linearGradient><linearGradient id="linearGradient8491" x1="6" x2="8" y1="3" y2="8" gradientUnits="userSpaceOnUse" xlink:href="#linearGradient4514"/><linearGradient id="linearGradient10028" x1="11" x2="9" y1="14" y2="8.482" gradientUnits="userSpaceOnUse" xlink:href="#linearGradient4506"/></defs><g id="g5313"><path id="path5305" fill="#999" d="M8,16c-4.418,0-8-3.579-8-7.996C0,3.581,3.582,0,8,0s8,3.581,8,8.004C16,12.421,12.418,16,8,16z"/><circle id="circle6661" cx="7.997" cy="8.15" r="6.983" fill="#dc0000" style="display:inline;fill:#21de08;fill-opacity:1"/><circle id="circle5307" cx="7.997" cy="8.15" r="6.983" fill="#dc0000" style="display:none"/><circle id="circle8479" cx="7.997" cy="8.15" r="6.983" fill="#dc0000" style="display:inline;fill-opacity:1;fill:url(#linearGradient10028)"/><circle id="circle8481" cx="7.997" cy="8.15" r="6.983" fill="#dc0000" style="display:inline;fill-opacity:1;fill:url(#linearGradient8491)"/><path id="path5309" fill="#FFF" d="M8,0.759c-3.992,0-7.238,3.252-7.238,7.245c0,3.986,3.247,7.238,7.238,7.238 c3.992,0,7.238-3.252,7.238-7.238C15.238,4.011,11.992,0.759,8,0.759z M8,13.961c-3.285,0-5.957-2.674-5.957-5.957 c0-3.291,2.672-5.963,5.957-5.963s5.957,2.672,5.957,5.963C13.957,11.287,11.285,13.961,8,13.961z"/><g id="g3776" transform="translate(-0.40556252,-1.844)"><path id="path3774" fill="#fff" d="M 11.021,8.319 10.836,8.134 9.734,9.236 9.92,9.42 c 0.318,0.32 0.496,0.747 0.496,1.2 0,0.453 -0.178,0.88 -0.496,1.198 -0.641,0.642 -1.76,0.641 -2.399,0 C 6.866,11.164 6.863,10.103 7.503,9.441 L 9.081,10.964 9.744,6.174 4.839,6.763 6.252,8.19 6.401,8.339 c -1.249,1.271 -1.244,3.32 0.019,4.582 0.613,0.614 1.431,0.951 2.301,0.951 0.87,0 1.688,-0.337 2.301,-0.951 1.267,-1.271 1.267,-3.333 -10e-4,-4.602 z"/></g></g><rect id="rect2151" width="10.5" height="10.5" x="-19.758" y="1.272" fill="#dc0000" style="display:inline;fill:url(#linearGradient3009);fill-opacity:1"/><rect id="rect2153" width="10.5" height="10.5" x="-19.758" y="1.272" fill="#dc0000" style="display:inline;fill:url(#linearGradient2946);fill-opacity:1"/></svg>