<svg xmlns="http://www.w3.org/2000/svg" xmlns:svg="http://www.w3.org/2000/svg" xmlns:xlink="http://www.w3.org/1999/xlink" id="Layer_1" width="16" height="16" x="0" y="0" enable-background="new 0 0 16 16" version="1.1" viewBox="0 0 16 16" xml:space="preserve"><defs id="defs5318"><linearGradient id="linearGradient4506"><stop style="stop-color:#000;stop-opacity:.15753424" id="stop4508" offset="0"/><stop style="stop-color:#000;stop-opacity:0" id="stop4510" offset="1"/></linearGradient><linearGradient id="linearGradient4514"><stop style="stop-color:#fff;stop-opacity:.15753424" id="stop4516" offset="0"/><stop style="stop-color:#fff;stop-opacity:0" id="stop4518" offset="1"/></linearGradient><linearGradient id="linearGradient8491" x1="6" x2="8" y1="3" y2="8" gradientUnits="userSpaceOnUse" xlink:href="#linearGradient4514"/><linearGradient id="linearGradient10028" x1="11" x2="9" y1="14" y2="8.482" gradientUnits="userSpaceOnUse" xlink:href="#linearGradient4506"/><clipPath id="clipPath16523" clipPathUnits="userSpaceOnUse"><ellipse style="display:inline;fill:#5c5c5c;fill-opacity:1;stroke-width:1;stroke-linecap:round;stroke-opacity:.468014" id="ellipse16525" cx="9.906" cy="8.371" rx="7.159" ry="7.16"/></clipPath><clipPath id="clipPath1857" clipPathUnits="userSpaceOnUse"><ellipse style="display:inline;fill:#5c5c5c;fill-opacity:1;stroke-width:.999996;stroke-linecap:round;stroke-opacity:.468014" id="ellipse1859" cx="8.216" cy="8.418" rx="7.129" ry="7.129"/></clipPath><clipPath id="clipPath688" clipPathUnits="userSpaceOnUse"><ellipse style="display:inline;fill:#5c5c5c;fill-opacity:1;stroke-width:.999999;stroke-linecap:round;stroke-opacity:.468014" id="ellipse690" cx="8.534" cy="8.605" rx="7.094" ry="7.097"/></clipPath><clipPath id="clipPath692" clipPathUnits="userSpaceOnUse"><ellipse style="display:inline;fill:#5c5c5c;fill-opacity:1;stroke-width:.999999;stroke-linecap:round;stroke-opacity:.468014" id="ellipse694" cx="8.534" cy="8.605" rx="7.094" ry="7.097"/></clipPath></defs><g id="g5313"><path id="path5305" fill="#999" d="M 8,16 C 3.582,16 0,12.421 0,8.004 0,3.581 3.582,0 8,0 12.418,0 16,3.581 16,8.004 16,12.421 12.418,16 8,16 Z" style="display:inline"/><circle id="circle6661" cx="7.997" cy="8.15" r="6.983" fill="#dc0000" style="display:none;fill:#21de08;fill-opacity:1"/><circle id="circle5307" cx="7.997" cy="8.15" r="6.983" fill="#dc0000" style="display:none"/><circle id="circle1634" cx="7.997" cy="8.15" r="6.983" fill="#dc0000" style="display:inline;fill:#babdb6"/><circle id="circle8479" cx="7.997" cy="8.15" r="6.983" fill="#dc0000" style="display:inline;fill-opacity:1;fill:url(#linearGradient10028)"/><circle id="circle8481" cx="7.997" cy="8.15" r="6.983" fill="#dc0000" style="display:inline;fill-opacity:1;fill:url(#linearGradient8491)"/><path id="path5309" fill="#FFF" d="M8,0.759c-3.992,0-7.238,3.252-7.238,7.245c0,3.986,3.247,7.238,7.238,7.238 c3.992,0,7.238-3.252,7.238-7.238C15.238,4.011,11.992,0.759,8,0.759z M8,13.961c-3.285,0-5.957-2.674-5.957-5.957 c0-3.291,2.672-5.963,5.957-5.963s5.957,2.672,5.957,5.963C13.957,11.287,11.285,13.961,8,13.961z"/><g id="g3209" style="display:none;stroke-width:3.70422" clip-path="url(#clipPath692)" transform="matrix(1.0203309,0,0,1.0203309,-0.70794112,-0.77946788)"><path id="path5467" style="color:#000;display:inline;fill:#3da612;fill-opacity:1;stroke-width:3.70422" d="m 3.2400727,6.0332235 c -1.6282601,0.025031 -2.1744608,0.033365 -3.15226236,0.03514 -0.0024621,4.4e-6 -0.0055129,-1.246e-4 -0.0077515,0 h -0.0020671 c -0.0015111,1.863e-4 -0.0075469,0.00201 -0.0077515,0.00207 -1.023e-4,3.36e-5 -0.0097684,0.00358 -0.0098185,0.00362 -5.013e-5,3.77e-5 -0.01343772,0.029414 -0.01343588,0.029456 1.84e-6,4.16e-5 0.01131521,0.023209 0.01136882,0.023254 5.361e-5,4.56e-5 0.008163,0.00408 0.0082682,0.00413 2.1039e-4,9.91e-5 0.0042993,0.00374 0.0056844,0.00413 0.0013851,3.829e-4 0.0025445,-2.261e-4 0.0036173,0 0.0085823,0.00181 0.01938611,0.00364 0.03720703,0.00568 0.0356419,0.00408 0.0950003,0.00804 0.17569987,0.015503 0.16139919,0.014936 0.40809825,0.037018 0.71313472,0.062528 0.6100732,0.051019 1.455774,0.1198322 2.3342245,0.1875855 0.050425,0.00389 0.092576,-0.01329 0.1188558,-0.041341 0.02628,-0.028051 0.035949,-0.06235 0.040824,-0.097152 0.00487,-0.034802 0.00431,-0.071307 0.00207,-0.099736 -0.00224,-0.02843 -0.00568,-0.052455 -0.00568,-0.054777 V 6.087992 L 3.4690065,6.080242 C 3.4186965,6.0664 3.3985335,6.056142 3.3692715,6.046652 3.3400085,6.037162 3.3054505,6.03221 3.2400804,6.033216 Z"/><path style="fill:#46be13;fill-opacity:1;stroke:none;stroke-width:.980073px;stroke-linecap:butt;stroke-linejoin:miter;stroke-opacity:1" id="path3205" d="M 8.9032692,6.1928876 C 6.8638617,6.0382159 4.5961906,5.9612841 3.6084262,5.9804506 3.4148813,5.9842241 3.4132913,6.0163697 3.2997077,6.1473133 3.2255203,6.2328396 3.1612662,6.302039 3.2225006,6.4932988 c 0.061237,0.19126 1.1039387,1.7303724 1.5035164,2.4394119 0.3087693,0.5479034 0.6305558,1.7898373 0.71721,2.4766723 0.095323,0.755546 0.00949,1.138757 -0.1326524,1.633742 -0.08989,0.313022 -0.277895,0.777884 -0.3291536,0.883345 -0.071749,0.147618 -0.2424409,0.438716 -0.2780846,0.533086 -0.084615,0.224023 -0.055321,0.267404 0.1122927,0.337702 0.144197,0.06048 1.4882014,-0.03298 1.8109768,-0.107824 0.3469277,-0.08045 0.7924818,-0.303498 1.1487712,-0.561988 C 8.2021253,13.817837 9.3085408,12.666171 9.7145043,11.889861 10.120468,11.113552 11.018747,9.8289026 11.235702,9.5534115 11.791959,8.8470788 12.42794,8.4769487 12.723889,8.3179773 13.178299,8.0738903 13.680024,8.2113596 14.207641,7.6982137 14.448023,7.4644225 14.608088,7.1972481 14.533722,6.9712183 14.459354,6.7451873 14.172097,6.745049 13.973417,6.7053004 13.774739,6.6655519 13.575575,6.6305956 13.364945,6.6053352 11.882005,6.4274872 11.256513,6.3713525 8.9032682,6.1928793 Z"/><path style="fill:#50d614;fill-opacity:1;stroke:none;stroke-width:.980073px;stroke-linecap:butt;stroke-linejoin:miter;stroke-opacity:1" id="path3207" d="M 13.061635,5.2295311 C 13.013617,4.9413813 12.875822,4.3436854 12.80026,4.0297442 12.753435,3.8351889 12.645904,3.3934937 12.51538,3.1076385 12.355481,2.7574505 12.156827,2.4673879 11.900236,2.2341766 11.801496,2.1444339 11.623019,2.1134401 11.53973,2.1166641 11.323239,2.1250442 11.36145,2.1997672 11.305994,2.3921507 11.24828,2.5923659 11.224831,2.7057664 11.1125,2.9104136 10.960772,3.1868365 10.583333,3.7041667 10.31875,3.96875 9.9843113,4.3031885 9.5077152,4.5996551 9.2604168,4.7625 8.7662984,5.0878748 8.3389344,5.227556 8.0846163,5.3187745 7.475322,5.5373184 6.4981568,5.6783374 5.8414466,5.8117975 c 0.6818225,0.013539 2.5610101,0.097892 4.5452274,0.2552756 1.678991,0.1331734 2.755596,0.2723835 3.094781,0.3211796 -0.313793,-0.4073843 -0.350107,-0.7318582 -0.41982,-1.1587216 z"/></g><g id="g6183" style="display:inline;stroke-width:3.70422" clip-path="url(#clipPath688)" transform="matrix(1.0203309,0,0,1.0203309,-0.70794119,-0.77946796)"><path id="path6177" style="color:#000;display:inline;fill:#0b48a8;stroke-width:3.70422" d="m 3.2400727,6.0332235 c -1.6282601,0.025031 -2.1744608,0.033365 -3.15226236,0.03514 -0.0024621,4.4e-6 -0.0055129,-1.246e-4 -0.0077515,0 h -0.0020671 c -0.0015111,1.863e-4 -0.0075469,0.00201 -0.0077515,0.00207 -1.023e-4,3.36e-5 -0.0097684,0.00358 -0.0098185,0.00362 -5.013e-5,3.77e-5 -0.01343772,0.029414 -0.01343588,0.029456 1.84e-6,4.16e-5 0.01131521,0.023209 0.01136882,0.023254 5.361e-5,4.56e-5 0.008163,0.00408 0.0082682,0.00413 2.1039e-4,9.91e-5 0.0042993,0.00374 0.0056844,0.00413 0.0013851,3.829e-4 0.0025445,-2.261e-4 0.0036173,0 0.0085823,0.00181 0.01938611,0.00364 0.03720703,0.00568 0.0356419,0.00408 0.0950003,0.00804 0.17569987,0.015503 0.16139919,0.014936 0.40809825,0.037018 0.71313472,0.062528 0.6100732,0.051019 1.455774,0.1198322 2.3342245,0.1875855 0.050425,0.00389 0.092576,-0.01329 0.1188558,-0.041341 0.02628,-0.028051 0.035949,-0.06235 0.040824,-0.097152 0.00487,-0.034802 0.00431,-0.071307 0.00207,-0.099736 -0.00224,-0.02843 -0.00568,-0.052455 -0.00568,-0.054777 V 6.087992 L 3.4690065,6.080242 C 3.4186965,6.0664 3.3985335,6.056142 3.3692715,6.046652 3.3400085,6.037162 3.3054505,6.03221 3.2400804,6.033216 Z"/><path style="fill:#0d54c6;fill-opacity:1;stroke:none;stroke-width:.980074px;stroke-linecap:butt;stroke-linejoin:miter;stroke-opacity:1" id="path6179" d="M 8.9032692,6.1928876 C 6.8638617,6.0382159 4.5961906,5.9612841 3.6084262,5.9804506 3.4148813,5.9842241 3.4132913,6.0163697 3.2997077,6.1473133 3.2255203,6.2328396 3.1612662,6.302039 3.2225006,6.4932988 c 0.061237,0.19126 1.1039387,1.7303724 1.5035164,2.4394119 0.3087693,0.5479034 0.6305558,1.7898373 0.71721,2.4766723 0.095323,0.755546 0.00949,1.138757 -0.1326524,1.633742 -0.08989,0.313022 -0.277895,0.777884 -0.3291536,0.883345 -0.071749,0.147618 -0.2424409,0.438716 -0.2780846,0.533086 -0.084615,0.224023 -0.055321,0.267404 0.1122927,0.337702 0.144197,0.06048 1.4882014,-0.03298 1.8109768,-0.107824 0.3469277,-0.08045 0.7924818,-0.303498 1.1487712,-0.561988 C 8.2021253,13.817837 9.3085408,12.666171 9.7145043,11.889861 10.120468,11.113552 11.018747,9.8289026 11.235702,9.5534115 11.791959,8.8470788 12.42794,8.4769487 12.723889,8.3179773 13.178299,8.0738903 13.680024,8.2113596 14.207641,7.6982137 14.448023,7.4644225 14.608088,7.1972481 14.533722,6.9712183 14.459354,6.7451873 14.172097,6.745049 13.973417,6.7053004 13.774739,6.6655519 13.575575,6.6305956 13.364945,6.6053352 11.882005,6.4274872 11.256513,6.3713525 8.9032682,6.1928793 Z"/><path style="fill:#0e63eb;fill-opacity:1;stroke:none;stroke-width:.980074px;stroke-linecap:butt;stroke-linejoin:miter;stroke-opacity:1" id="path6181" d="M 13.061635,5.2295311 C 13.013617,4.9413813 12.875822,4.3436854 12.80026,4.0297442 12.753435,3.8351889 12.645904,3.3934937 12.51538,3.1076385 12.355481,2.7574505 12.156827,2.4673879 11.900236,2.2341766 11.801496,2.1444339 11.623019,2.1134401 11.53973,2.1166641 11.323239,2.1250442 11.36145,2.1997672 11.305994,2.3921507 11.24828,2.5923659 11.224831,2.7057664 11.1125,2.9104136 10.960772,3.1868365 10.583333,3.7041667 10.31875,3.96875 9.9843113,4.3031885 9.5077152,4.5996551 9.2604168,4.7625 8.7662984,5.0878748 8.3389344,5.227556 8.0846163,5.3187745 7.475322,5.5373184 6.4981568,5.6783374 5.8414466,5.8117975 c 0.6818225,0.013539 2.5610101,0.097892 4.5452274,0.2552756 1.678991,0.1331734 2.755596,0.2723835 3.094781,0.3211796 -0.313793,-0.4073843 -0.350107,-0.7318582 -0.41982,-1.1587216 z"/></g></g></svg>