<svg xmlns="http://www.w3.org/2000/svg" xmlns:svg="http://www.w3.org/2000/svg" xmlns:xlink="http://www.w3.org/1999/xlink" id="Layer_1" width="24" height="24" x="0" y="0" enable-background="new 0 0 24 24" version="1.1" viewBox="0 0 24 24" xml:space="preserve"><defs id="defs577"><linearGradient id="linearGradient5075"><stop style="stop-color:#fffdff;stop-opacity:.15753424" id="stop5077" offset="0"/><stop style="stop-color:#fff;stop-opacity:0" id="stop5079" offset="1"/></linearGradient><linearGradient id="linearGradient14426" x1="9.564" x2="12" y1="6" y2="12" gradientUnits="userSpaceOnUse" xlink:href="#linearGradient5075"/><linearGradient id="linearGradient5067"><stop style="stop-color:#000;stop-opacity:.15753424" id="stop5069" offset="0"/><stop style="stop-color:#000;stop-opacity:0" id="stop5071" offset="1"/></linearGradient><linearGradient id="linearGradient19220" x1="15" x2="13" y1="21" y2="13" gradientUnits="userSpaceOnUse" xlink:href="#linearGradient5067"/></defs><g id="g572"><circle id="circle554" cx="12" cy="12" r="12" fill="#999" style="display:inline"/><circle id="circle25311" cx="11.903" cy="11.952" r="10.476" fill="#4d4d4d" style="display:inline;fill:#21de08;fill-opacity:1"/><circle id="circle556" cx="11.903" cy="11.952" r="10.476" fill="#4d4d4d" style="display:none;fill:#db0000;fill-opacity:1"/><circle id="circle16976" cx="11.903" cy="11.952" r="10.476" fill="#4d4d4d" style="display:inline;fill:url(#linearGradient19220);fill-opacity:1"/><circle id="circle10986" cx="11.903" cy="11.952" fill="#4d4d4d" style="display:inline;fill:url(#linearGradient14426);fill-opacity:1" r="10.476"/><g id="g570"><g id="g568"><path id="path558" fill="#FFF" d="M12,1.144C6.015,1.144,1.144,6.013,1.144,12c0,5.985,4.871,10.856,10.856,10.856 c5.986,0,10.856-4.871,10.856-10.856C22.856,6.013,17.986,1.144,12,1.144z M12,20.935c-4.927,0-8.935-4.008-8.935-8.935 S7.073,3.064,12,3.064S20.936,7.073,20.936,12S16.927,20.935,12,20.935z"/></g></g><path id="path653" fill="#fff" d="m 15.797939,9.4743881 -0.282138,-0.2841965 -1.697971,1.6979714 0.283167,0.283166 c 0.493225,0.493225 0.765065,1.151202 0.765065,1.850367 0,0.700194 -0.272869,1.357141 -0.765065,1.850366 -0.98748,0.98748 -2.714282,0.98542 -3.699703,0 -1.0101327,-1.009104 -1.0152812,-2.644263 -0.0278,-3.666753 l 2.432145,2.34874 L 13.827098,6.167 6.265,7.072104 8.4438397,9.2735971 8.6744919,9.5042493 c -1.9265638,1.9584847 -1.9183262,5.1206847 0.027802,7.0647537 0.9452623,0.947322 2.2066411,1.467319 3.5473071,1.467319 1.342726,0 2.601016,-0.519997 3.546278,-1.467319 1.958485,-1.956425 1.958485,-5.13922 0.0021,-7.0946149 z" style="stroke-width:1"/></g></svg>